<svg width="200" height="36" viewBox="0 0 200 36" fill="none" xmlns="http://www.w3.org/2000/svg">
<path d="M0 34.964V28.8777H32.1151C34.5755 28.8777 36.3885 27.0647 36.3885 24.6043C36.3885 22.2086 34.5755 20.3957 32.1151 20.3957H10.4245C4.40288 20.3957 0.647482 17.223 0.647482 13.2734C0.647482 9.1295 4.72662 7.05755 8.41727 6.08633C7.76979 7.18705 7.51079 8.41726 7.51079 9.45324C7.51079 12.1079 9.1295 13.8561 12.3022 13.8561H33.2158C39.4317 13.8561 43.8993 18.3237 43.8993 24.4101C43.8993 30.4964 39.4317 34.964 33.2158 34.964H0ZM8.41727 6.08633C10.813 2.07194 14.1799 0 19.6835 0H41.3094V6.08633H8.41727Z" fill="white"/>
<path d="M78.922 0C89.476 0 96.7278 7.2518 96.7278 16.8993V18.0647C96.7278 27.7122 89.476 34.964 78.922 34.964H67.1378C56.6486 34.964 49.3321 27.7122 49.3321 18.0647V16.8993C49.3321 7.2518 56.6486 0 67.1378 0H78.922ZM57.1018 18.1295C57.1018 24.3453 61.2457 28.4892 67.5263 28.4892H78.5335C84.8788 28.4892 88.958 24.3453 88.958 18.1295V16.8345C88.958 10.6187 84.8788 6.47482 78.5335 6.47482H67.5263C61.2457 6.47482 57.1018 10.6187 57.1018 16.8345V18.1295Z" fill="white"/>
<path d="M122.24 36C114.923 36 110.779 32.4388 108.513 25.705L99.7719 0H107.736L115.635 23.4388C117.189 27.9712 120.232 29.4604 125.218 29.4604H132.211C131.11 32.8273 129.427 36 122.24 36ZM132.211 29.4604L142.117 0H150.081L142.441 22.1439C140.499 27.8417 137.326 29.4604 132.211 29.4604Z" fill="white"/>
<path d="M164.256 34.964C157.846 34.964 153.378 30.4964 153.378 24.3453C153.378 18.1942 157.846 13.7266 164.256 13.7266H177.206C183.357 13.7266 187.371 15.7986 191.321 19.6835H165.745C163.026 19.6835 161.083 21.4964 161.083 24.0863C161.083 26.6763 163.026 28.4892 165.745 28.4892H191.321V19.6835C196.047 23.1151 199.091 27.8417 199.091 33.6043V34.964H164.256ZM191.321 12.7554C191.321 9.25899 188.925 6.86331 185.429 6.86331H155.709V0H186.853C194.299 0 199.091 4.72662 199.091 12.1079V19.6835H191.321V12.7554Z" fill="white"/>
</svg>
