<svg width="1081" height="142" viewBox="0 0 1081 142" fill="none" xmlns="http://www.w3.org/2000/svg">
<path d="M0.969727 138.827V120.184H99.1517C106.674 120.184 112.216 114.631 112.216 107.095C112.216 99.757 106.674 94.2039 99.1517 94.2039H32.8393C14.4302 94.2039 2.9492 84.486 2.9492 72.3883C2.9492 59.6955 15.4199 53.3492 26.7029 50.3743C24.7234 53.7458 23.9316 57.514 23.9316 60.6872C23.9316 68.8184 28.8803 74.1732 38.5798 74.1732H102.517C121.52 74.1732 135.178 87.8575 135.178 106.5C135.178 125.142 121.52 138.827 102.517 138.827H0.969727ZM26.7029 50.3743C34.027 38.0782 44.3202 31.7318 61.1458 31.7318H127.26V50.3743H26.7029Z" fill="white"/>
<path d="M242.249 31.7318C274.515 31.7318 296.685 53.9441 296.685 83.4944V87.0643C296.685 116.615 274.515 138.827 242.249 138.827H206.223C174.155 138.827 151.787 116.615 151.787 87.0643V83.4944C151.787 53.9441 174.155 31.7318 206.223 31.7318H242.249ZM175.541 87.2626C175.541 106.302 188.21 118.994 207.41 118.994H241.061C260.46 118.994 272.931 106.302 272.931 87.2626V83.2961C272.931 64.257 260.46 51.5642 241.061 51.5642H207.41C188.21 51.5642 175.541 64.257 175.541 83.2961V87.2626Z" fill="white"/>
<path d="M374.679 142C352.311 142 339.642 131.092 332.714 110.466L305.991 31.7318H330.339L354.488 103.525C359.239 117.408 368.543 121.969 383.785 121.969H405.163C401.798 132.282 396.651 142 374.679 142ZM405.163 121.969L435.449 31.7318H459.797L436.439 99.5587C430.5 117.011 420.801 121.969 405.163 121.969Z" fill="white"/>
<path d="M503.132 138.827C483.535 138.827 469.876 125.142 469.876 106.302C469.876 87.4609 483.535 73.7765 503.132 73.7765H542.721C561.526 73.7765 573.799 80.1229 585.874 92.0224H507.684C499.371 92.0224 493.432 97.5754 493.432 105.508C493.432 113.441 499.371 118.994 507.684 118.994H585.874V92.0224C600.324 102.534 609.627 117.011 609.627 134.662V138.827H503.132ZM585.874 70.8017C585.874 60.0922 578.55 52.7542 567.86 52.7542H477.003V31.7318H572.215C594.979 31.7318 609.627 46.2095 609.627 68.8184V92.0224H585.874V70.8017Z" fill="white"/>
<path d="M651.162 97.9721C651.162 77.5447 657.892 64.0587 675.114 51.7626V118.796H738.457C757.46 118.796 770.129 106.302 770.129 87.2626V83.2961C770.129 64.257 757.46 51.7626 738.457 51.7626H675.114C686.199 38.6732 700.847 31.7318 719.454 31.7318H740.437C771.514 31.7318 793.882 53.9441 793.882 83.4944V87.0643C793.882 116.615 771.514 138.827 740.437 138.827H651.162V97.9721ZM651.162 51.7626V0H675.114V51.7626H651.162Z" fill="#84F29B"/>
<path d="M857.662 117.804C840.44 105.508 833.71 90.4358 833.71 69.8101V51.3659H800.851V31.7318H833.71V0H857.662V117.804ZM857.662 117.804H942.383V138.827H901.408C882.801 138.827 868.549 131.092 857.662 117.804ZM857.86 51.3659C868.153 39.4665 880.426 31.7318 898.043 31.7318H941.592V51.3659H857.86Z" fill="#84F29B"/>
<path d="M1008.92 138.827C976.058 138.827 953.887 118.994 953.887 91.824V90.2374C953.887 70.6034 965.17 56.324 983.975 51.5642C978.037 61.6788 977.443 75.5615 977.443 81.9078C977.443 107.293 991.497 118.994 1012.28 118.994H1080.97V138.827H1008.92ZM983.975 51.5642C991.3 39.6648 1006.94 31.7318 1023.76 31.7318H1080.97V51.5642H983.975Z" fill="#84F29B"/>
</svg>
